<?xml version="1.0" encoding="UTF-8"?>
<svg id="Layer_2" data-name="Layer 2" xmlns="http://www.w3.org/2000/svg" viewBox="0 0 438.84 503.92">
  <defs>
    <style>
      .cls-1 {
        fill: #fff;
      }
    </style>
  </defs>
  <g id="Layer_1-2" data-name="Layer 1">
    <g>
      <path d="M170.08,392.69l-23.49-42.93c-20.4,15.71-42.51,29.43-66.99,37.95-8.48,2.95-21.66,4.89-28.78,8.21-12.4,5.79-24.23,17.9-39.06,23.92-6.58,2.67-12.19,6.55-11.72-3.7,1.46-32.6,6.63-65.72,13.36-97.57,17.65-83.57,50.66-170.34,123.45-220.33l4.73-27.24-51.01,37.96-1.48-.49C125.25,35.3,198.71-31.49,283.75,15.89c6.71,3.74,19.46,15.07,24.08,16.9,13.51,5.35,36.98,8.11,52.07,11.92,21.81,5.52,48.63,11.32,68.56,21.42,2.43,1.23,15.58,7.53,8.11,8.86-34.69,1.32-70.54.73-104.83,6.17-15.44,2.45-33.01,5.96-45.65,15.32,14.03,13.89,24.08,29.86,25.85,50.08,5.5,62.82-42.15,132.75-88.4,171.18-4.85,4.03-16.29,10.7-19.5,14.49-5.07,5.99-2.31,10.86.17,16.87,6.18,14.95,15.97,28.82,22.53,43.64l195.31.48c9.46,10.42-3.37,15.84-8.95,22.98-13.08,16.73-12.16,47.41,1,63.89,3.18,3.98,10.26,7.55,10.93,12.08,1.27,8.53-6.4,10.91-13.42,11.45-13.62,1.06-27.52-.96-40.99-1.08-87.01-.82-174.07.69-261.08.08-41.35-6.12-61.57-49.82-40.27-86.25,5.5-9.41,22.08-23.67,33.3-23.67h67.5ZM280.07,52.03c2.08-12.51-5.11-22.95-18.47-22.01-8.19.58-11.7,6.48-15.15,12.88-7.43.42-15.52-1.63-22.83-1.9-22.07-.83-43.83,3.92-61.54,17.53,5.69.43,11.09-2.67,16.6-3.39,1.12-.15,5.4-.98,5.39.88-14.05,6.74-24.02,22.88-29.99,36.97,27.94-6.27,65,1.81,76.48,31,3.62,9.22,4.08,19.16,4.51,28.95-7.19-9.44-10.84-21.78-19.98-29.97,18.16,64.17-23.89,119.3-68,160.36-34.73,32.33-79.89,61.65-108.99,98.92-.94,1.2-6.87,8.66-6.02,9.46,5.43-.51,9.73-5.47,14.27-7.21,30.31-11.57,49.02-15.85,77.45-34.52,10.3-6.77,22.98-19.37,32.35-24.63,4.26-2.39,23.92-11.13,28.44-12.55.51-.16,1.63-.27,1.48.48l-19.99,22.99,13.67-6.33c49.66-27.71,93.83-83.89,109.04-138.82,7.92-28.59,10.69-67.5-15.8-87.54-3.65-2.76-7.79-4.1-11.64-6.36-.6-.36-1.95-.01-1.27-1.7,1.05-2.58,22.56-13.05,26.47-14.52,10.11-3.82,21.67-6.12,32.52-5.98-.27-1.73-2-1.73-3.23-2.26-12.29-5.28-27.03-4.64-40.01-6.99-2.51-1.13-4.72-3.36-2.84-6.04,3.38-4.81,27.38-1.82,33.61-2.72l70.45,6.03-60.62-9.86c-12.34-.95-23.97-3.36-36.38-1.12ZM208.08,392.69l-26.48-49.86c-4.3,2.89-9.45,3.8-14.12,5.82-.93.4-1.83-.58-1.31,1.48l23.91,42.56h18ZM390.08,414.67c-1.14-1.14-10.57.92-12.61.9-79.58-.92-159.95-2.39-239.44.56-27.82,8.86-26.15,55.86,1.82,63.21,5.89,1.55,8.52.18,13.68.22,79.5.7,159.05-.41,238.55.04-8.59-21.08-6.44-43.16-2-64.92Z"/>
      <path class="cls-1" d="M280.07,52.03c12.41-2.24,24.04.17,36.38,1.12l60.62,9.86-70.45-6.03c-6.23.9-30.23-2.09-33.61,2.72-1.89,2.68.33,4.91,2.84,6.04,12.98,2.34,27.72,1.7,40.01,6.99,1.23.53,2.95.53,3.23,2.26-10.85-.13-22.41,2.16-32.52,5.98-3.9,1.48-25.42,11.95-26.47,14.52-.69,1.69.66,1.35,1.27,1.7,3.85,2.27,7.98,3.6,11.64,6.36,26.49,20.04,23.72,58.95,15.8,87.54-15.21,54.93-59.38,111.11-109.04,138.82l-13.67,6.33,19.99-22.99c.16-.75-.96-.64-1.48-.48-4.52,1.42-24.18,10.16-28.44,12.55-9.37,5.26-22.04,17.86-32.35,24.63-28.43,18.67-47.14,22.95-77.45,34.52-4.55,1.74-8.84,6.7-14.27,7.21-.84-.8,5.09-8.26,6.02-9.46,29.09-37.27,74.26-66.59,108.99-98.92,44.1-41.06,86.16-96.19,68-160.36,9.14,8.19,12.79,20.53,19.98,29.97-.43-9.8-.88-19.74-4.51-28.95-11.48-29.19-48.54-37.26-76.48-31,5.97-14.09,15.94-30.23,29.99-36.97.02-1.86-4.26-1.03-5.39-.88-5.51.72-10.91,3.83-16.6,3.39,17.71-13.61,39.47-18.36,61.54-17.53,7.31.28,15.39,2.32,22.83,1.9,3.45-6.4,6.96-12.3,15.15-12.88,13.36-.94,20.55,9.5,18.47,22.01ZM271.77,39.35c-9.58-8.87-25.52,4.44-16.14,14.62s27.18-4.4,16.14-14.62Z"/>
      <path class="cls-1" d="M390.08,414.67c-4.44,21.76-6.59,43.84,2,64.92-79.49-.45-159.04.66-238.55-.04-5.16-.05-7.79,1.32-13.68-.22-27.97-7.35-29.64-54.34-1.82-63.21,79.49-2.94,159.85-1.47,239.44-.56,2.04.02,11.47-2.03,12.61-.9Z"/>
      <path class="cls-1" d="M208.08,392.69h-18l-23.91-42.56c-.52-2.06.38-1.07,1.31-1.48,4.67-2.02,9.82-2.93,14.12-5.82l26.48,49.86Z"/>
      <path d="M271.77,39.35c11.04,10.22-6.41,25.16-16.14,14.62s6.55-23.49,16.14-14.62Z"/>
    </g>
  </g>
</svg>